<?xml version='1.0' encoding='UTF-8' standalone='no'?>
<!-- Created with Fritzing (http://www.fritzing.org/) -->
<svg xmlns="http://www.w3.org/2000/svg" baseProfile="tiny" y="0in" x="0in" width="3.40947in" height="1.82633in" xmlns:svg="http://www.w3.org/2000/svg"  version="1.2" viewBox="0 0 245.482 131.496">
 <g partID="57701">
  <g transform="translate(72.0754,18.0512)">
   <g  id="copper1">
    <circle cx="3.01733" r="0.992124" cy="3.01733" stroke="#8e9c70" fill="none" stroke-width="0.850392"  id="connector0pin"/>
   </g>
  </g>
 </g>
 <g partID="57731">
  <g transform="translate(79.2754,32.4512)">
   <g  id="copper1">
    <circle cx="3.01733" r="0.992124" cy="3.01733" stroke="#8e9c70" fill="none" stroke-width="0.850392"  id="connector0pin"/>
   </g>
  </g>
 </g>
 <g partID="57761">
  <g transform="translate(86.4754,61.2512)">
   <g  id="copper1">
    <circle cx="3.01733" r="0.992124" cy="3.01733" stroke="#8e9c70" fill="none" stroke-width="0.850392"  id="connector0pin"/>
   </g>
  </g>
 </g>
 <g partID="57791">
  <g transform="translate(72.0754,46.8512)">
   <g  id="copper1">
    <circle cx="3.01733" r="0.992124" cy="3.01733" stroke="#8e9c70" fill="none" stroke-width="0.850392"  id="connector0pin"/>
   </g>
  </g>
 </g>
 <g partID="57821">
  <g transform="translate(86.4754,75.6512)">
   <g  id="copper1">
    <circle cx="3.01733" r="0.992124" cy="3.01733" stroke="#8e9c70" fill="none" stroke-width="0.850392"  id="connector0pin"/>
   </g>
  </g>
 </g>
 <g partID="57851">
  <g transform="translate(79.2754,104.451)">
   <g  id="copper1">
    <circle cx="3.01733" r="0.992124" cy="3.01733" stroke="#8e9c70" fill="none" stroke-width="0.850392"  id="connector0pin"/>
   </g>
  </g>
 </g>
 <g partID="57881">
  <g transform="translate(86.4754,90.0512)">
   <g  id="copper1">
    <circle cx="3.01733" r="0.992124" cy="3.01733" stroke="#8e9c70" fill="none" stroke-width="0.850392"  id="connector0pin"/>
   </g>
  </g>
 </g>
 <g partID="57911">
  <g transform="translate(79.2754,25.2512)">
   <g  id="copper1">
    <circle cx="3.01733" r="0.992124" cy="3.01733" stroke="#8e9c70" fill="none" stroke-width="0.850392"  id="connector0pin"/>
   </g>
  </g>
 </g>
 <g partID="57941">
  <g transform="translate(57.6754,10.8512)">
   <g  id="copper1">
    <circle cx="3.01733" r="0.992124" cy="3.01733" stroke="#8e9c70" fill="none" stroke-width="0.850392"  id="connector0pin"/>
   </g>
  </g>
 </g>
 <g partID="57971">
  <g transform="translate(72.0754,111.651)">
   <g  id="copper1">
    <circle cx="3.01733" r="0.992124" cy="3.01733" stroke="#8e9c70" fill="none" stroke-width="0.850392"  id="connector0pin"/>
   </g>
  </g>
 </g>
 <g partID="58001">
  <g transform="translate(86.4754,46.8512)">
   <g  id="copper1">
    <circle cx="3.01733" r="0.992124" cy="3.01733" stroke="#8e9c70" fill="none" stroke-width="0.850392"  id="connector0pin"/>
   </g>
  </g>
 </g>
 <g partID="59321">
  <g transform="translate(79.2754,68.4512)">
   <g  id="copper1">
    <circle cx="3.01733" r="0.992124" cy="3.01733" stroke="#8e9c70" fill="none" stroke-width="0.850392"  id="connector0pin"/>
   </g>
  </g>
 </g>
 <g partID="59381">
  <g transform="translate(79.2754,82.8512)">
   <g  id="copper1">
    <circle cx="3.01733" r="0.992124" cy="3.01733" stroke="#8e9c70" fill="none" stroke-width="0.850392"  id="connector0pin"/>
   </g>
  </g>
 </g>
 <g partID="59411">
  <g transform="translate(86.4754,97.2512)">
   <g  id="copper1">
    <circle cx="3.01733" r="0.992124" cy="3.01733" stroke="#8e9c70" fill="none" stroke-width="0.850392"  id="connector0pin"/>
   </g>
  </g>
 </g>
 <g partID="59641">
  <g transform="translate(50.4754,75.6512)">
   <g  id="copper1">
    <circle cx="3.01733" r="0.992124" cy="3.01733" stroke="#8e9c70" fill="none" stroke-width="0.850392"  id="connector0pin"/>
   </g>
  </g>
 </g>
 <g partID="60151">
  <g transform="translate(50.4754,32.4512)">
   <g  id="copper1">
    <circle cx="3.01733" r="0.992124" cy="3.01733" stroke="#8e9c70" fill="none" stroke-width="0.850392"  id="connector0pin"/>
   </g>
  </g>
 </g>
 <g partID="60231">
  <g transform="translate(21.6754,10.8512)">
   <g  id="copper1">
    <circle cx="3.01733" r="0.992124" cy="3.01733" stroke="#8e9c70" fill="none" stroke-width="0.850392"  id="connector0pin"/>
   </g>
  </g>
 </g>
 <g partID="60261">
  <g transform="translate(36.0754,3.65123)">
   <g  id="copper1">
    <circle cx="3.01733" r="0.992124" cy="3.01733" stroke="#8e9c70" fill="none" stroke-width="0.850392"  id="connector0pin"/>
   </g>
  </g>
 </g>
 <g partID="60631">
  <g transform="translate(50.4754,104.451)">
   <g  id="copper1">
    <circle cx="3.01733" r="0.992124" cy="3.01733" stroke="#8e9c70" fill="none" stroke-width="0.850392"  id="connector0pin"/>
   </g>
  </g>
 </g>
 <g partID="60951">
  <g transform="translate(43.2754,118.851)">
   <g  id="copper1">
    <circle cx="3.01733" r="0.992124" cy="3.01733" stroke="#8e9c70" fill="none" stroke-width="0.850392"  id="connector0pin"/>
   </g>
  </g>
 </g>
 <g partID="60981">
  <g transform="translate(21.6754,118.851)">
   <g  id="copper1">
    <circle cx="3.01733" r="0.992124" cy="3.01733" stroke="#8e9c70" fill="none" stroke-width="0.850392"  id="connector0pin"/>
   </g>
  </g>
 </g>
 <g partID="59940">
  <line y2="42.6521" stroke="#8e9c70" y1="35.5391" stroke-width="1.728" x1="39.1304" stroke-linecap="round" x2="39.1304"/>
 </g>
 <g partID="58790">
  <line y2="35.5391" stroke="#8e9c70" y1="21.0857" stroke-width="1.728" x1="60.7061" stroke-linecap="round" x2="39.1304"/>
 </g>
 <g partID="59910">
  <line y2="35.4141" stroke="#8e9c70" y1="35.5391" stroke-width="1.728" x1="39.1304" stroke-linecap="round" x2="-4.10169"/>
 </g>
 <g partID="58730">
  <line y2="35.5391" stroke="#8e9c70" y1="42.6521" stroke-width="1.728" x1="39.1304" stroke-linecap="round" x2="39.1304"/>
 </g>
 <g partID="58170">
  <line y2="21.0857" stroke="#8e9c70" y1="21.0702" stroke-width="1.728" x1="73.7258" stroke-linecap="round" x2="60.7061"/>
 </g>
 <g partID="60180">
  <line y2="42.5719" stroke="#8e9c70" y1="35.5391" stroke-width="1.728" x1="60.7657" stroke-linecap="round" x2="53.5583"/>
 </g>
 <g partID="58850">
  <line y2="42.5719" stroke="#8e9c70" y1="42.5719" stroke-width="1.728" x1="53.5583" stroke-linecap="round" x2="-4.10169"/>
 </g>
 <g partID="58820">
  <line y2="35.5391" stroke="#8e9c70" y1="28.2563" stroke-width="1.728" x1="67.8739" stroke-linecap="round" x2="60.7657"/>
 </g>
 <g partID="58200">
  <line y2="28.2563" stroke="#8e9c70" y1="28.2674" stroke-width="1.728" x1="80.9258" stroke-linecap="round" x2="67.8739"/>
 </g>
 <g partID="59830">
  <line y2="49.9133" stroke="#8e9c70" y1="49.9133" stroke-width="1.728" x1="46.2434" stroke-linecap="round" x2="-4.14015"/>
 </g>
 <g partID="58910">
  <line y2="49.9133" stroke="#8e9c70" y1="49.9285" stroke-width="1.728" x1="60.7161" stroke-linecap="round" x2="46.2434"/>
 </g>
 <g partID="58230">
  <line y2="35.5391" stroke="#8e9c70" y1="35.482" stroke-width="1.728" x1="80.9259" stroke-linecap="round" x2="75.1398"/>
 </g>
 <g partID="58880">
  <line y2="49.9285" stroke="#8e9c70" y1="35.5391" stroke-width="1.728" x1="75.1398" stroke-linecap="round" x2="60.7161"/>
 </g>
 <g partID="59000">
  <line y2="64.2874" stroke="#8e9c70" y1="64.1392" stroke-width="1.728" x1="74.9917" stroke-linecap="round" x2="-4.14015"/>
 </g>
 <g partID="59880">
  <line y2="49.9133" stroke="#8e9c70" y1="57.0262" stroke-width="1.728" x1="39.1304" stroke-linecap="round" x2="46.2434"/>
 </g>
 <g partID="59850">
  <line y2="57.0617" stroke="#8e9c70" y1="57.0262" stroke-width="1.728" x1="39.1304" stroke-linecap="round" x2="-4.05364"/>
 </g>
 <g partID="59030">
  <line y2="57.0262" stroke="#8e9c70" y1="57.0787" stroke-width="1.728" x1="67.8819" stroke-linecap="round" x2="39.1304"/>
 </g>
 <g partID="59810">
  <line y2="57.0262" stroke="#8e9c70" y1="49.9133" stroke-width="1.728" x1="46.2434" stroke-linecap="round" x2="39.1304"/>
 </g>
 <g partID="58290">
  <line y2="57.0787" stroke="#8e9c70" y1="50.8351" stroke-width="1.728" x1="74.1262" stroke-linecap="round" x2="67.8819"/>
 </g>
 <g partID="60120">
  <line y2="35.5391" stroke="#8e9c70" y1="28.278" stroke-width="1.728" x1="24.7563" stroke-linecap="round" x2="17.4951"/>
 </g>
 <g partID="60890">
  <line y2="13.9038" stroke="#8e9c70" y1="28.329" stroke-width="1.728" x1="31.814" stroke-linecap="round" x2="53.5046"/>
 </g>
 <g partID="60090">
  <line y2="28.329" stroke="#8e9c70" y1="28.278" stroke-width="1.728" x1="24.7563" stroke-linecap="round" x2="31.814"/>
 </g>
 <g partID="60060">
  <line y2="28.278" stroke="#8e9c70" y1="35.5391" stroke-width="1.728" x1="17.4951" stroke-linecap="round" x2="24.7563"/>
 </g>
 <g partID="60920">
  <line y2="21.0012" stroke="#8e9c70" y1="28.329" stroke-width="1.728" x1="31.814" stroke-linecap="round" x2="24.679"/>
 </g>
 <g partID="58670">
  <line y2="28.278" stroke="#8e9c70" y1="28.2277" stroke-width="1.728" x1="-4.0463" stroke-linecap="round" x2="24.7563"/>
 </g>
 <g partID="59290">
  <line y2="13.8753" stroke="#8e9c70" y1="13.9038" stroke-width="1.728" x1="53.5046" stroke-linecap="round" x2="59.3259"/>
 </g>
 <g partID="58700">
  <line y2="28.329" stroke="#8e9c70" y1="21.0012" stroke-width="1.728" x1="24.679" stroke-linecap="round" x2="31.814"/>
 </g>
 <g partID="58420">
  <line y2="64.2686" stroke="#8e9c70" y1="64.2686" stroke-width="1.728" x1="88.1258" stroke-linecap="round" x2="-9.51511"/>
 </g>
 <g partID="60030">
  <line y2="71.4004" stroke="#8e9c70" y1="71.4004" stroke-width="1.728" x1="24.7563" stroke-linecap="round" x2="-4.14015"/>
 </g>
 <g partID="59970">
  <line y2="71.4004" stroke="#8e9c70" y1="64.2874" stroke-width="1.728" x1="17.4951" stroke-linecap="round" x2="24.7563"/>
 </g>
 <g partID="60000">
  <line y2="64.2874" stroke="#8e9c70" y1="71.4004" stroke-width="1.728" x1="24.7563" stroke-linecap="round" x2="17.4951"/>
 </g>
 <g partID="58450">
  <line y2="78.6615" stroke="#8e9c70" y1="78.6679" stroke-width="1.728" x1="88.1258" stroke-linecap="round" x2="75.1398"/>
 </g>
 <g partID="59230">
  <line y2="71.8449" stroke="#8e9c70" y1="78.6615" stroke-width="1.728" x1="75.1398" stroke-linecap="round" x2="54.0973"/>
 </g>
 <g partID="59200">
  <line y2="71.4004" stroke="#8e9c70" y1="71.8449" stroke-width="1.728" x1="54.0973" stroke-linecap="round" x2="24.7563"/>
 </g>
 <g partID="59750">
  <line y2="78.6594" stroke="#8e9c70" y1="78.6615" stroke-width="1.728" x1="39.1304" stroke-linecap="round" x2="31.814"/>
 </g>
 <g partID="60460">
  <line y2="78.6594" stroke="#8e9c70" y1="85.7944" stroke-width="1.728" x1="24.679" stroke-linecap="round" x2="31.814"/>
 </g>
 <g partID="60480">
  <line y2="85.7944" stroke="#8e9c70" y1="78.6594" stroke-width="1.728" x1="31.814" stroke-linecap="round" x2="24.679"/>
 </g>
 <g partID="60510">
  <line y2="78.6615" stroke="#8e9c70" y1="78.6594" stroke-width="1.728" x1="31.814" stroke-linecap="round" x2="-4.14015"/>
 </g>
 <g partID="59460">
  <line y2="85.9227" stroke="#8e9c70" y1="93.0356" stroke-width="1.728" x1="67.8787" stroke-linecap="round" x2="60.7657"/>
 </g>
 <g partID="59720">
  <line y2="85.9227" stroke="#8e9c70" y1="85.9227" stroke-width="1.728" x1="60.7657" stroke-linecap="round" x2="46.2434"/>
 </g>
 <g partID="59670">
  <line y2="78.6615" stroke="#8e9c70" y1="85.9227" stroke-width="1.728" x1="46.2434" stroke-linecap="round" x2="39.1304"/>
 </g>
 <g partID="60400">
  <line y2="85.7944" stroke="#8e9c70" y1="85.7944" stroke-width="1.728" x1="31.814" stroke-linecap="round" x2="-4.05364"/>
 </g>
 <g partID="60340">
  <line y2="93.1221" stroke="#8e9c70" y1="93.1221" stroke-width="1.728" x1="53.4117" stroke-linecap="round" x2="39.1418"/>
 </g>
 <g partID="60370">
  <line y2="85.7944" stroke="#8e9c70" y1="93.1221" stroke-width="1.728" x1="39.1418" stroke-linecap="round" x2="31.814"/>
 </g>
 <g partID="60310">
  <line y2="93.1221" stroke="#8e9c70" y1="107.392" stroke-width="1.728" x1="67.8744" stroke-linecap="round" x2="53.4117"/>
 </g>
 <g partID="58510">
  <line y2="107.392" stroke="#8e9c70" y1="107.461" stroke-width="1.728" x1="80.9259" stroke-linecap="round" x2="67.8744"/>
 </g>
 <g partID="61510">
  <line y2="85.8938" stroke="#8e9c70" y1="85.8938" stroke-width="1.728" x1="17.4415" stroke-linecap="round" x2="-4.0463"/>
 </g>
 <g partID="61270">
  <line y2="93.1221" stroke="#8e9c70" y1="100.257" stroke-width="1.728" x1="31.814" stroke-linecap="round" x2="24.679"/>
 </g>
 <g partID="58540">
  <line y2="114.72" stroke="#8e9c70" y1="114.672" stroke-width="1.728" x1="73.7258" stroke-linecap="round" x2="53.4117"/>
 </g>
 <g partID="60540">
  <line y2="100.257" stroke="#8e9c70" y1="114.72" stroke-width="1.728" x1="53.4117" stroke-linecap="round" x2="31.814"/>
 </g>
 <g partID="60570">
  <line y2="85.8938" stroke="#8e9c70" y1="93.1221" stroke-width="1.728" x1="24.679" stroke-linecap="round" x2="17.4415"/>
 </g>
 <g partID="59170">
  <line y2="50.8274" stroke="#8e9c70" y1="64.1392" stroke-width="1.728" x1="74.9917" stroke-linecap="round" x2="88.5185"/>
 </g>
 <g partID="59350">
  <line y2="71.4868" stroke="#8e9c70" y1="71.8449" stroke-width="1.728" x1="54.0973" stroke-linecap="round" x2="80.926"/>
 </g>
 <g partID="59490">
  <line y2="100.297" stroke="#8e9c70" y1="93.0356" stroke-width="1.728" x1="67.8787" stroke-linecap="round" x2="75.1398"/>
 </g>
 <g partID="59580">
  <line y2="100.271" stroke="#8e9c70" y1="100.297" stroke-width="1.728" x1="75.1398" stroke-linecap="round" x2="88.1258"/>
 </g>
 <g partID="59550">
  <line y2="85.8789" stroke="#8e9c70" y1="85.9227" stroke-width="1.728" x1="75.1398" stroke-linecap="round" x2="80.9259"/>
 </g>
 <g partID="59520">
  <line y2="85.9227" stroke="#8e9c70" y1="93.1838" stroke-width="1.728" x1="68.7678" stroke-linecap="round" x2="75.1398"/>
 </g>
 <g partID="59610">
  <line y2="93.0762" stroke="#8e9c70" y1="93.1838" stroke-width="1.728" x1="68.7678" stroke-linecap="round" x2="88.1259"/>
 </g>
 <g partID="59690">
  <line y2="79.6354" stroke="#8e9c70" y1="85.9227" stroke-width="1.728" x1="46.2434" stroke-linecap="round" x2="52.5265"/>
 </g>
 <g partID="60200">
  <line y2="35.4818" stroke="#8e9c70" y1="35.5391" stroke-width="1.728" x1="60.7657" stroke-linecap="round" x2="54.8596"/>
 </g>
 <g partID="60710">
  <line y2="108.835" stroke="#8e9c70" y1="114.72" stroke-width="1.728" x1="53.4117" stroke-linecap="round" x2="53.4775"/>
 </g>
 <g partID="61360">
  <line y2="21.0012" stroke="#8e9c70" y1="20.992" stroke-width="1.728" x1="17.4415" stroke-linecap="round" x2="24.679"/>
 </g>
 <g partID="60860">
  <line y2="20.992" stroke="#8e9c70" y1="28.2277" stroke-width="1.728" x1="10.2058" stroke-linecap="round" x2="17.4415"/>
 </g>
 <g partID="61330">
  <line y2="28.2277" stroke="#8e9c70" y1="28.2277" stroke-width="1.728" x1="-4.0463" stroke-linecap="round" x2="10.2058"/>
 </g>
 <g partID="60800">
  <line y2="8.03546" stroke="#8e9c70" y1="13.8663" stroke-width="1.728" x1="39.1418" stroke-linecap="round" x2="39.1021"/>
 </g>
 <g partID="60770">
  <line y2="13.8663" stroke="#8e9c70" y1="21.0012" stroke-width="1.728" x1="24.679" stroke-linecap="round" x2="39.1418"/>
 </g>
 <g partID="60830">
  <line y2="15.2355" stroke="#8e9c70" y1="21.0012" stroke-width="1.728" x1="24.679" stroke-linecap="round" x2="24.6901"/>
 </g>
 <g partID="61600">
  <line y2="93.1295" stroke="#8e9c70" y1="93.1295" stroke-width="1.728" x1="10.2058" stroke-linecap="round" x2="17.4415"/>
 </g>
 <g partID="61630">
  <line y2="85.8938" stroke="#8e9c70" y1="85.8938" stroke-width="1.728" x1="-4.0463" stroke-linecap="round" x2="3.18938"/>
 </g>
 <g partID="61570">
  <line y2="93.1295" stroke="#8e9c70" y1="85.8938" stroke-width="1.728" x1="3.18938" stroke-linecap="round" x2="10.2058"/>
 </g>
 <g partID="61210">
  <line y2="100.257" stroke="#8e9c70" y1="107.392" stroke-width="1.728" x1="31.814" stroke-linecap="round" x2="31.814"/>
 </g>
 <g partID="61150">
  <line y2="107.392" stroke="#8e9c70" y1="93.1295" stroke-width="1.728" x1="17.4415" stroke-linecap="round" x2="24.679"/>
 </g>
 <g partID="61040">
  <line y2="107.392" stroke="#8e9c70" y1="107.392" stroke-width="1.728" x1="24.679" stroke-linecap="round" x2="31.814"/>
 </g>
 <g partID="61180">
  <line y2="107.392" stroke="#8e9c70" y1="100.257" stroke-width="1.728" x1="31.814" stroke-linecap="round" x2="31.814"/>
 </g>
 <g partID="61060">
  <line y2="120.502" stroke="#8e9c70" y1="107.392" stroke-width="1.728" x1="24.679" stroke-linecap="round" x2="24.6915"/>
 </g>
 <g partID="61300">
  <line y2="120.902" stroke="#8e9c70" y1="107.392" stroke-width="1.728" x1="31.814" stroke-linecap="round" x2="45.3261"/>
 </g>
</svg>
